<?xml version="1.0" encoding="utf-8"?><svg width="auto" height="3770" style="overflow:visible " version="1.1" xmlns="http://www.w3.org/2000/svg"><rect x="20" y="20" width="200" height="40" style="fill:white;stroke:black;stroke-width:1" /><text x="30" y="30" font-size="10" style="fill:blue">xs:schema</text><text x="30" y="40" font-size="8" style="fill:black">xmlns:xs: http://www.w3.org/2001/XMLSchema</text><text x="30" y="50" font-size="8" style="fill:black">targetNamespace: http://www.uniovi.es</text><text x="30" y="60" font-size="8" style="fill:black">xmlns: http://www.uniovi.es</text><text x="30" y="70" font-size="8" style="fill:black">elementFormDefault: qualified</text><rect x="240" y="20" width="200" height="40" style="fill:white;stroke:black;stroke-width:1" /><text x="250" y="30" font-size="10" style="fill:blue">xs:element</text><path d="M220 40 C240 40 220 40 240 40" style="fill:transparent;stroke:black" /><text x="250" y="40" font-size="8" style="fill:black">name: circuito</text><rect x="460" y="20" width="200" height="40" style="fill:white;stroke:black;stroke-width:1" /><text x="470" y="30" font-size="10" style="fill:blue">xs:complexType</text><path d="M440 40 C460 40 440 40 460 40" style="fill:transparent;stroke:black" /><rect x="680" y="20" width="200" height="40" style="fill:white;stroke:black;stroke-width:1" /><text x="690" y="30" font-size="10" style="fill:blue">xs:sequence</text><path d="M660 40 C680 40 660 40 680 40" style="fill:transparent;stroke:black" /><rect x="900" y="20" width="200" height="40" style="fill:white;stroke:black;stroke-width:1" /><text x="910" y="30" font-size="10" style="fill:blue">xs:element</text><path d="M880 40 C900 40 880 40 900 40" style="fill:transparent;stroke:black" /><text x="910" y="40" font-size="8" style="fill:black">ref: nombre</text><rect x="900" y="70" width="200" height="40" style="fill:white;stroke:black;stroke-width:1" /><text x="910" y="80" font-size="10" style="fill:blue">xs:element</text><path d="M880 40 C900 40 880 90 900 90" style="fill:transparent;stroke:black" /><text x="910" y="90" font-size="8" style="fill:black">ref: longitudCircuito</text><rect x="900" y="120" width="200" height="40" style="fill:white;stroke:black;stroke-width:1" /><text x="910" y="130" font-size="10" style="fill:blue">xs:element</text><path d="M880 40 C900 40 880 140 900 140" style="fill:transparent;stroke:black" /><text x="910" y="140" font-size="8" style="fill:black">ref: anchura</text><rect x="900" y="170" width="200" height="40" style="fill:white;stroke:black;stroke-width:1" /><text x="910" y="180" font-size="10" style="fill:blue">xs:element</text><path d="M880 40 C900 40 880 190 900 190" style="fill:transparent;stroke:black" /><text x="910" y="190" font-size="8" style="fill:black">ref: fecha</text><rect x="900" y="220" width="200" height="40" style="fill:white;stroke:black;stroke-width:1" /><text x="910" y="230" font-size="10" style="fill:blue">xs:element</text><path d="M880 40 C900 40 880 240 900 240" style="fill:transparent;stroke:black" /><text x="910" y="240" font-size="8" style="fill:black">ref: hora</text><rect x="900" y="270" width="200" height="40" style="fill:white;stroke:black;stroke-width:1" /><text x="910" y="280" font-size="10" style="fill:blue">xs:element</text><path d="M880 40 C900 40 880 290 900 290" style="fill:transparent;stroke:black" /><text x="910" y="290" font-size="8" style="fill:black">ref: vueltas</text><rect x="900" y="320" width="200" height="40" style="fill:white;stroke:black;stroke-width:1" /><text x="910" y="330" font-size="10" style="fill:blue">xs:element</text><path d="M880 40 C900 40 880 340 900 340" style="fill:transparent;stroke:black" /><text x="910" y="340" font-size="8" style="fill:black">ref: localidad</text><rect x="900" y="370" width="200" height="40" style="fill:white;stroke:black;stroke-width:1" /><text x="910" y="380" font-size="10" style="fill:blue">xs:element</text><path d="M880 40 C900 40 880 390 900 390" style="fill:transparent;stroke:black" /><text x="910" y="390" font-size="8" style="fill:black">ref: pais</text><rect x="900" y="420" width="200" height="40" style="fill:white;stroke:black;stroke-width:1" /><text x="910" y="430" font-size="10" style="fill:blue">xs:element</text><path d="M880 40 C900 40 880 440 900 440" style="fill:transparent;stroke:black" /><text x="910" y="440" font-size="8" style="fill:black">ref: referencias</text><rect x="900" y="470" width="200" height="40" style="fill:white;stroke:black;stroke-width:1" /><text x="910" y="480" font-size="10" style="fill:blue">xs:element</text><path d="M880 40 C900 40 880 490 900 490" style="fill:transparent;stroke:black" /><text x="910" y="490" font-size="8" style="fill:black">ref: fotografias</text><rect x="900" y="520" width="200" height="40" style="fill:white;stroke:black;stroke-width:1" /><text x="910" y="530" font-size="10" style="fill:blue">xs:element</text><path d="M880 40 C900 40 880 540 900 540" style="fill:transparent;stroke:black" /><text x="910" y="540" font-size="8" style="fill:black">ref: videos</text><rect x="900" y="570" width="200" height="40" style="fill:white;stroke:black;stroke-width:1" /><text x="910" y="580" font-size="10" style="fill:blue">xs:element</text><path d="M880 40 C900 40 880 590 900 590" style="fill:transparent;stroke:black" /><text x="910" y="590" font-size="8" style="fill:black">ref: coordenadas</text><rect x="900" y="620" width="200" height="40" style="fill:white;stroke:black;stroke-width:1" /><text x="910" y="630" font-size="10" style="fill:blue">xs:element</text><path d="M880 40 C900 40 880 640 900 640" style="fill:transparent;stroke:black" /><text x="910" y="640" font-size="8" style="fill:black">ref: tramos</text><rect x="240" y="820" width="200" height="40" style="fill:white;stroke:black;stroke-width:1" /><text x="250" y="830" font-size="10" style="fill:blue">xs:element</text><path d="M220 40 C240 40 220 840 240 840" style="fill:transparent;stroke:black" /><text x="250" y="840" font-size="8" style="fill:black">name: nombre</text><text x="250" y="850" font-size="8" style="fill:black">type: xs:string</text><rect x="240" y="870" width="200" height="40" style="fill:white;stroke:black;stroke-width:1" /><text x="250" y="880" font-size="10" style="fill:blue">xs:element</text><path d="M220 40 C240 40 220 890 240 890" style="fill:transparent;stroke:black" /><text x="250" y="890" font-size="8" style="fill:black">name: valor</text><text x="250" y="900" font-size="8" style="fill:black">type: xs:integer</text><rect x="240" y="920" width="200" height="40" style="fill:white;stroke:black;stroke-width:1" /><text x="250" y="930" font-size="10" style="fill:blue">xs:element</text><path d="M220 40 C240 40 220 940 240 940" style="fill:transparent;stroke:black" /><text x="250" y="940" font-size="8" style="fill:black">name: unidad</text><text x="250" y="950" font-size="8" style="fill:black">type: xs:string</text><rect x="240" y="970" width="200" height="40" style="fill:white;stroke:black;stroke-width:1" /><text x="250" y="980" font-size="10" style="fill:blue">xs:element</text><path d="M220 40 C240 40 220 990 240 990" style="fill:transparent;stroke:black" /><text x="250" y="990" font-size="8" style="fill:black">name: longitudCircuito</text><rect x="460" y="970" width="200" height="40" style="fill:white;stroke:black;stroke-width:1" /><text x="470" y="980" font-size="10" style="fill:blue">xs:complexType</text><path d="M440 990 C460 990 440 990 460 990" style="fill:transparent;stroke:black" /><rect x="680" y="970" width="200" height="40" style="fill:white;stroke:black;stroke-width:1" /><text x="690" y="980" font-size="10" style="fill:blue">xs:sequence</text><path d="M660 990 C680 990 660 990 680 990" style="fill:transparent;stroke:black" /><rect x="900" y="970" width="200" height="40" style="fill:white;stroke:black;stroke-width:1" /><text x="910" y="980" font-size="10" style="fill:blue">xs:element</text><path d="M880 990 C900 990 880 990 900 990" style="fill:transparent;stroke:black" /><text x="910" y="990" font-size="8" style="fill:black">ref: valor</text><rect x="900" y="1020" width="200" height="40" style="fill:white;stroke:black;stroke-width:1" /><text x="910" y="1030" font-size="10" style="fill:blue">xs:element</text><path d="M880 990 C900 990 880 1040 900 1040" style="fill:transparent;stroke:black" /><text x="910" y="1040" font-size="8" style="fill:black">ref: unidad</text><rect x="240" y="1220" width="200" height="40" style="fill:white;stroke:black;stroke-width:1" /><text x="250" y="1230" font-size="10" style="fill:blue">xs:element</text><path d="M220 40 C240 40 220 1240 240 1240" style="fill:transparent;stroke:black" /><text x="250" y="1240" font-size="8" style="fill:black">name: anchura</text><rect x="460" y="1220" width="200" height="40" style="fill:white;stroke:black;stroke-width:1" /><text x="470" y="1230" font-size="10" style="fill:blue">xs:complexType</text><path d="M440 1240 C460 1240 440 1240 460 1240" style="fill:transparent;stroke:black" /><rect x="680" y="1220" width="200" height="40" style="fill:white;stroke:black;stroke-width:1" /><text x="690" y="1230" font-size="10" style="fill:blue">xs:sequence</text><path d="M660 1240 C680 1240 660 1240 680 1240" style="fill:transparent;stroke:black" /><rect x="900" y="1220" width="200" height="40" style="fill:white;stroke:black;stroke-width:1" /><text x="910" y="1230" font-size="10" style="fill:blue">xs:element</text><path d="M880 1240 C900 1240 880 1240 900 1240" style="fill:transparent;stroke:black" /><text x="910" y="1240" font-size="8" style="fill:black">ref: valor</text><rect x="900" y="1270" width="200" height="40" style="fill:white;stroke:black;stroke-width:1" /><text x="910" y="1280" font-size="10" style="fill:blue">xs:element</text><path d="M880 1240 C900 1240 880 1290 900 1290" style="fill:transparent;stroke:black" /><text x="910" y="1290" font-size="8" style="fill:black">ref: unidad</text><rect x="240" y="1470" width="200" height="40" style="fill:white;stroke:black;stroke-width:1" /><text x="250" y="1480" font-size="10" style="fill:blue">xs:element</text><path d="M220 40 C240 40 220 1490 240 1490" style="fill:transparent;stroke:black" /><text x="250" y="1490" font-size="8" style="fill:black">name: fecha</text><text x="250" y="1500" font-size="8" style="fill:black">type: xs:date</text><rect x="240" y="1520" width="200" height="40" style="fill:white;stroke:black;stroke-width:1" /><text x="250" y="1530" font-size="10" style="fill:blue">xs:element</text><path d="M220 40 C240 40 220 1540 240 1540" style="fill:transparent;stroke:black" /><text x="250" y="1540" font-size="8" style="fill:black">name: hora</text><text x="250" y="1550" font-size="8" style="fill:black">type: xs:time</text><rect x="240" y="1570" width="200" height="40" style="fill:white;stroke:black;stroke-width:1" /><text x="250" y="1580" font-size="10" style="fill:blue">xs:element</text><path d="M220 40 C240 40 220 1590 240 1590" style="fill:transparent;stroke:black" /><text x="250" y="1590" font-size="8" style="fill:black">name: vueltas</text><text x="250" y="1600" font-size="8" style="fill:black">type: xs:integer</text><rect x="240" y="1620" width="200" height="40" style="fill:white;stroke:black;stroke-width:1" /><text x="250" y="1630" font-size="10" style="fill:blue">xs:element</text><path d="M220 40 C240 40 220 1640 240 1640" style="fill:transparent;stroke:black" /><text x="250" y="1640" font-size="8" style="fill:black">name: localidad</text><text x="250" y="1650" font-size="8" style="fill:black">type: xs:string</text><rect x="240" y="1670" width="200" height="40" style="fill:white;stroke:black;stroke-width:1" /><text x="250" y="1680" font-size="10" style="fill:blue">xs:element</text><path d="M220 40 C240 40 220 1690 240 1690" style="fill:transparent;stroke:black" /><text x="250" y="1690" font-size="8" style="fill:black">name: pais</text><text x="250" y="1700" font-size="8" style="fill:black">type: xs:string</text><rect x="240" y="1720" width="200" height="40" style="fill:white;stroke:black;stroke-width:1" /><text x="250" y="1730" font-size="10" style="fill:blue">xs:element</text><path d="M220 40 C240 40 220 1740 240 1740" style="fill:transparent;stroke:black" /><text x="250" y="1740" font-size="8" style="fill:black">name: referencias</text><rect x="460" y="1720" width="200" height="40" style="fill:white;stroke:black;stroke-width:1" /><text x="470" y="1730" font-size="10" style="fill:blue">xs:complexType</text><path d="M440 1740 C460 1740 440 1740 460 1740" style="fill:transparent;stroke:black" /><rect x="680" y="1720" width="200" height="40" style="fill:white;stroke:black;stroke-width:1" /><text x="690" y="1730" font-size="10" style="fill:blue">xs:sequence</text><path d="M660 1740 C680 1740 660 1740 680 1740" style="fill:transparent;stroke:black" /><rect x="900" y="1720" width="200" height="40" style="fill:white;stroke:black;stroke-width:1" /><text x="910" y="1730" font-size="10" style="fill:blue">xs:element</text><path d="M880 1740 C900 1740 880 1740 900 1740" style="fill:transparent;stroke:black" /><text x="910" y="1740" font-size="8" style="fill:black">minOccurs: 3</text><text x="910" y="1750" font-size="8" style="fill:black">maxOccurs: unbounded</text><text x="910" y="1760" font-size="8" style="fill:black">ref: referencia</text><rect x="240" y="1920" width="200" height="40" style="fill:white;stroke:black;stroke-width:1" /><text x="250" y="1930" font-size="10" style="fill:blue">xs:element</text><path d="M220 40 C240 40 220 1940 240 1940" style="fill:transparent;stroke:black" /><text x="250" y="1940" font-size="8" style="fill:black">name: referencia</text><text x="250" y="1950" font-size="8" style="fill:black">type: xs:string</text><rect x="240" y="1970" width="200" height="40" style="fill:white;stroke:black;stroke-width:1" /><text x="250" y="1980" font-size="10" style="fill:blue">xs:element</text><path d="M220 40 C240 40 220 1990 240 1990" style="fill:transparent;stroke:black" /><text x="250" y="1990" font-size="8" style="fill:black">name: fotografias</text><rect x="460" y="1970" width="200" height="40" style="fill:white;stroke:black;stroke-width:1" /><text x="470" y="1980" font-size="10" style="fill:blue">xs:complexType</text><path d="M440 1990 C460 1990 440 1990 460 1990" style="fill:transparent;stroke:black" /><rect x="680" y="1970" width="200" height="40" style="fill:white;stroke:black;stroke-width:1" /><text x="690" y="1980" font-size="10" style="fill:blue">xs:sequence</text><path d="M660 1990 C680 1990 660 1990 680 1990" style="fill:transparent;stroke:black" /><rect x="900" y="1970" width="200" height="40" style="fill:white;stroke:black;stroke-width:1" /><text x="910" y="1980" font-size="10" style="fill:blue">xs:element</text><path d="M880 1990 C900 1990 880 1990 900 1990" style="fill:transparent;stroke:black" /><text x="910" y="1990" font-size="8" style="fill:black">minOccurs: 1</text><text x="910" y="2000" font-size="8" style="fill:black">maxOccurs: 5</text><text x="910" y="2010" font-size="8" style="fill:black">ref: fotografia</text><rect x="240" y="2170" width="200" height="40" style="fill:white;stroke:black;stroke-width:1" /><text x="250" y="2180" font-size="10" style="fill:blue">xs:element</text><path d="M220 40 C240 40 220 2190 240 2190" style="fill:transparent;stroke:black" /><text x="250" y="2190" font-size="8" style="fill:black">name: fotografia</text><rect x="460" y="2170" width="200" height="40" style="fill:white;stroke:black;stroke-width:1" /><text x="470" y="2180" font-size="10" style="fill:blue">xs:complexType</text><path d="M440 2190 C460 2190 440 2190 460 2190" style="fill:transparent;stroke:black" /><rect x="680" y="2170" width="200" height="40" style="fill:white;stroke:black;stroke-width:1" /><text x="690" y="2180" font-size="10" style="fill:blue">xs:attribute</text><path d="M660 2190 C680 2190 660 2190 680 2190" style="fill:transparent;stroke:black" /><text x="690" y="2190" font-size="8" style="fill:black">name: archivo</text><text x="690" y="2200" font-size="8" style="fill:black">type: xs:string</text><text x="690" y="2210" font-size="8" style="fill:black">use: required</text><rect x="240" y="2320" width="200" height="40" style="fill:white;stroke:black;stroke-width:1" /><text x="250" y="2330" font-size="10" style="fill:blue">xs:element</text><path d="M220 40 C240 40 220 2340 240 2340" style="fill:transparent;stroke:black" /><text x="250" y="2340" font-size="8" style="fill:black">name: videos</text><rect x="460" y="2320" width="200" height="40" style="fill:white;stroke:black;stroke-width:1" /><text x="470" y="2330" font-size="10" style="fill:blue">xs:complexType</text><path d="M440 2340 C460 2340 440 2340 460 2340" style="fill:transparent;stroke:black" /><rect x="680" y="2320" width="200" height="40" style="fill:white;stroke:black;stroke-width:1" /><text x="690" y="2330" font-size="10" style="fill:blue">xs:sequence</text><path d="M660 2340 C680 2340 660 2340 680 2340" style="fill:transparent;stroke:black" /><rect x="900" y="2320" width="200" height="40" style="fill:white;stroke:black;stroke-width:1" /><text x="910" y="2330" font-size="10" style="fill:blue">xs:element</text><path d="M880 2340 C900 2340 880 2340 900 2340" style="fill:transparent;stroke:black" /><text x="910" y="2340" font-size="8" style="fill:black">minOccurs: 0</text><text x="910" y="2350" font-size="8" style="fill:black">maxOccurs: 3</text><text x="910" y="2360" font-size="8" style="fill:black">ref: video</text><rect x="240" y="2520" width="200" height="40" style="fill:white;stroke:black;stroke-width:1" /><text x="250" y="2530" font-size="10" style="fill:blue">xs:element</text><path d="M220 40 C240 40 220 2540 240 2540" style="fill:transparent;stroke:black" /><text x="250" y="2540" font-size="8" style="fill:black">name: video</text><rect x="460" y="2520" width="200" height="40" style="fill:white;stroke:black;stroke-width:1" /><text x="470" y="2530" font-size="10" style="fill:blue">xs:complexType</text><path d="M440 2540 C460 2540 440 2540 460 2540" style="fill:transparent;stroke:black" /><rect x="680" y="2520" width="200" height="40" style="fill:white;stroke:black;stroke-width:1" /><text x="690" y="2530" font-size="10" style="fill:blue">xs:attribute</text><path d="M660 2540 C680 2540 660 2540 680 2540" style="fill:transparent;stroke:black" /><text x="690" y="2540" font-size="8" style="fill:black">name: archivo</text><text x="690" y="2550" font-size="8" style="fill:black">type: xs:string</text><text x="690" y="2560" font-size="8" style="fill:black">use: required</text><rect x="240" y="2670" width="200" height="40" style="fill:white;stroke:black;stroke-width:1" /><text x="250" y="2680" font-size="10" style="fill:blue">xs:element</text><path d="M220 40 C240 40 220 2690 240 2690" style="fill:transparent;stroke:black" /><text x="250" y="2690" font-size="8" style="fill:black">name: coordenadas</text><rect x="460" y="2670" width="200" height="40" style="fill:white;stroke:black;stroke-width:1" /><text x="470" y="2680" font-size="10" style="fill:blue">xs:complexType</text><path d="M440 2690 C460 2690 440 2690 460 2690" style="fill:transparent;stroke:black" /><rect x="680" y="2670" width="200" height="40" style="fill:white;stroke:black;stroke-width:1" /><text x="690" y="2680" font-size="10" style="fill:blue">xs:sequence</text><path d="M660 2690 C680 2690 660 2690 680 2690" style="fill:transparent;stroke:black" /><rect x="900" y="2670" width="200" height="40" style="fill:white;stroke:black;stroke-width:1" /><text x="910" y="2680" font-size="10" style="fill:blue">xs:element</text><path d="M880 2690 C900 2690 880 2690 900 2690" style="fill:transparent;stroke:black" /><text x="910" y="2690" font-size="8" style="fill:black">ref: latitud</text><rect x="900" y="2720" width="200" height="40" style="fill:white;stroke:black;stroke-width:1" /><text x="910" y="2730" font-size="10" style="fill:blue">xs:element</text><path d="M880 2690 C900 2690 880 2740 900 2740" style="fill:transparent;stroke:black" /><text x="910" y="2740" font-size="8" style="fill:black">ref: longitud</text><rect x="900" y="2770" width="200" height="40" style="fill:white;stroke:black;stroke-width:1" /><text x="910" y="2780" font-size="10" style="fill:blue">xs:element</text><path d="M880 2690 C900 2690 880 2790 900 2790" style="fill:transparent;stroke:black" /><text x="910" y="2790" font-size="8" style="fill:black">ref: altitud</text><rect x="240" y="2970" width="200" height="40" style="fill:white;stroke:black;stroke-width:1" /><text x="250" y="2980" font-size="10" style="fill:blue">xs:element</text><path d="M220 40 C240 40 220 2990 240 2990" style="fill:transparent;stroke:black" /><text x="250" y="2990" font-size="8" style="fill:black">name: latitud</text><text x="250" y="3000" font-size="8" style="fill:black">type: xs:decimal</text><rect x="240" y="3020" width="200" height="40" style="fill:white;stroke:black;stroke-width:1" /><text x="250" y="3030" font-size="10" style="fill:blue">xs:element</text><path d="M220 40 C240 40 220 3040 240 3040" style="fill:transparent;stroke:black" /><text x="250" y="3040" font-size="8" style="fill:black">name: longitud</text><text x="250" y="3050" font-size="8" style="fill:black">type: xs:decimal</text><rect x="240" y="3070" width="200" height="40" style="fill:white;stroke:black;stroke-width:1" /><text x="250" y="3080" font-size="10" style="fill:blue">xs:element</text><path d="M220 40 C240 40 220 3090 240 3090" style="fill:transparent;stroke:black" /><text x="250" y="3090" font-size="8" style="fill:black">name: altitud</text><text x="250" y="3100" font-size="8" style="fill:black">type: xs:integer</text><rect x="240" y="3120" width="200" height="40" style="fill:white;stroke:black;stroke-width:1" /><text x="250" y="3130" font-size="10" style="fill:blue">xs:element</text><path d="M220 40 C240 40 220 3140 240 3140" style="fill:transparent;stroke:black" /><text x="250" y="3140" font-size="8" style="fill:black">name: tramos</text><rect x="460" y="3120" width="200" height="40" style="fill:white;stroke:black;stroke-width:1" /><text x="470" y="3130" font-size="10" style="fill:blue">xs:complexType</text><path d="M440 3140 C460 3140 440 3140 460 3140" style="fill:transparent;stroke:black" /><rect x="680" y="3120" width="200" height="40" style="fill:white;stroke:black;stroke-width:1" /><text x="690" y="3130" font-size="10" style="fill:blue">xs:sequence</text><path d="M660 3140 C680 3140 660 3140 680 3140" style="fill:transparent;stroke:black" /><rect x="900" y="3120" width="200" height="40" style="fill:white;stroke:black;stroke-width:1" /><text x="910" y="3130" font-size="10" style="fill:blue">xs:element</text><path d="M880 3140 C900 3140 880 3140 900 3140" style="fill:transparent;stroke:black" /><text x="910" y="3140" font-size="8" style="fill:black">name: tramo</text><text x="910" y="3150" font-size="8" style="fill:black">minOccurs: 1</text><text x="910" y="3160" font-size="8" style="fill:black">maxOccurs: unbounded</text><rect x="1120" y="3120" width="200" height="40" style="fill:white;stroke:black;stroke-width:1" /><text x="1130" y="3130" font-size="10" style="fill:blue">xs:complexType</text><path d="M1100 3140 C1120 3140 1100 3140 1120 3140" style="fill:transparent;stroke:black" /><rect x="1340" y="3120" width="200" height="40" style="fill:white;stroke:black;stroke-width:1" /><text x="1350" y="3130" font-size="10" style="fill:blue">xs:sequence</text><path d="M1320 3140 C1340 3140 1320 3140 1340 3140" style="fill:transparent;stroke:black" /><rect x="1560" y="3120" width="200" height="40" style="fill:white;stroke:black;stroke-width:1" /><text x="1570" y="3130" font-size="10" style="fill:blue">xs:element</text><path d="M1540 3140 C1560 3140 1540 3140 1560 3140" style="fill:transparent;stroke:black" /><text x="1570" y="3140" font-size="8" style="fill:black">ref: latitud</text><rect x="1560" y="3170" width="200" height="40" style="fill:white;stroke:black;stroke-width:1" /><text x="1570" y="3180" font-size="10" style="fill:blue">xs:element</text><path d="M1540 3140 C1560 3140 1540 3190 1560 3190" style="fill:transparent;stroke:black" /><text x="1570" y="3190" font-size="8" style="fill:black">ref: longitud</text><rect x="1560" y="3220" width="200" height="40" style="fill:white;stroke:black;stroke-width:1" /><text x="1570" y="3230" font-size="10" style="fill:blue">xs:element</text><path d="M1540 3140 C1560 3140 1540 3240 1560 3240" style="fill:transparent;stroke:black" /><text x="1570" y="3240" font-size="8" style="fill:black">ref: altitud</text><rect x="1340" y="3320" width="200" height="40" style="fill:white;stroke:black;stroke-width:1" /><text x="1350" y="3330" font-size="10" style="fill:blue">xs:attribute</text><path d="M1320 3140 C1340 3140 1320 3340 1340 3340" style="fill:transparent;stroke:black" /><text x="1350" y="3340" font-size="8" style="fill:black">name: distancia</text><text x="1350" y="3350" font-size="8" style="fill:black">type: xs:decimal</text><text x="1350" y="3360" font-size="8" style="fill:black">use: required</text><rect x="1340" y="3370" width="200" height="40" style="fill:white;stroke:black;stroke-width:1" /><text x="1350" y="3380" font-size="10" style="fill:blue">xs:attribute</text><path d="M1320 3140 C1340 3140 1320 3390 1340 3390" style="fill:transparent;stroke:black" /><text x="1350" y="3390" font-size="8" style="fill:black">name: unidades</text><text x="1350" y="3400" font-size="8" style="fill:black">type: xs:string</text><text x="1350" y="3410" font-size="8" style="fill:black">use: required</text><rect x="1340" y="3420" width="200" height="40" style="fill:white;stroke:black;stroke-width:1" /><text x="1350" y="3430" font-size="10" style="fill:blue">xs:attribute</text><path d="M1320 3140 C1340 3140 1320 3440 1340 3440" style="fill:transparent;stroke:black" /><text x="1350" y="3440" font-size="8" style="fill:black">name: sector</text><text x="1350" y="3450" font-size="8" style="fill:black">type: xs:string</text><text x="1350" y="3460" font-size="8" style="fill:black">use: required</text></svg>